<svg xmlns="http://www.w3.org/2000/svg" xmlns:osb="http://www.openswatchbook.org/uri/2009/osb" xmlns:svg="http://www.w3.org/2000/svg" xmlns:xlink="http://www.w3.org/1999/xlink" id="svg8" width="1024" height="1024" version="1.1" viewBox="0 0 270.933 270.933"><defs id="defs2"><linearGradient id="linearGradient2843" osb:paint="solid"><stop style="stop-color:#d01a1a;stop-opacity:1" id="stop2841" offset="0"/></linearGradient><linearGradient id="linearGradient2809" osb:paint="solid"><stop style="stop-color:#fff;stop-opacity:1" id="stop2807" offset="0"/></linearGradient><linearGradient id="linearGradient933"><stop style="stop-color:#575069;stop-opacity:1" id="stop929" offset="0"/><stop style="stop-color:#291e34;stop-opacity:1" id="stop931" offset="1"/></linearGradient><linearGradient id="linearGradient20" x1="75.098" x2="75.098" y1="42.784" y2="128.276" gradientTransform="matrix(2.0902819,0,0,2.2416497,-21.508513,-56.261098)" gradientUnits="userSpaceOnUse" xlink:href="#linearGradient933"/><pattern id="pattern865" width="697.034" height="697.034" patternTransform="translate(163.4831,163.48316)" patternUnits="userSpaceOnUse"><ellipse style="fill:none;fill-opacity:1;fill-rule:nonzero;stroke:#fff;stroke-width:80.0001;stroke-linecap:square;stroke-miterlimit:4;stroke-dasharray:none;stroke-opacity:1" id="ellipse857" cx="255.731" cy="255.731" rx="215.731" ry="215.731"/><path style="fill:none;stroke:#fff;stroke-width:99.9999;stroke-linecap:round;stroke-linejoin:miter;stroke-miterlimit:4;stroke-dasharray:none;stroke-opacity:1" id="path859" d="M 492.91021,492.91021 C 647.03386,647.03375 647.03386,647.03375 647.03386,647.03375"/><path style="fill:none;stroke:#fff;stroke-width:60;stroke-linecap:butt;stroke-linejoin:miter;stroke-miterlimit:4;stroke-dasharray:none;stroke-opacity:1" id="path861" d="M 421.149,421.149 C 598.79492,598.79481 598.79492,598.79481 598.79492,598.79481"/></pattern></defs><metadata id="metadata5"/><g style="display:inline" id="layer2"><rect style="opacity:1;fill:url(#linearGradient20);fill-opacity:1;fill-rule:evenodd;stroke:#3e3a49;stroke-width:8.46667;stroke-miterlimit:4;stroke-dasharray:none;stroke-opacity:1" id="bg" width="210.608" height="210.608" x="30.162" y="30.162" rx="47.625" ry="47.625"/></g><g id="layer1"><g id="g855" transform="translate(-1.7316886,-1.7316736)" style="display:none"><ellipse style="fill:none;fill-opacity:1;fill-rule:nonzero;stroke:#fff;stroke-width:19.037;stroke-linecap:square;stroke-miterlimit:4;stroke-dasharray:none;stroke-opacity:1" id="path863" cx="115.503" cy="115.503" rx="51.336" ry="51.336"/><path style="display:inline;fill:none;stroke:#fff;stroke-width:22.9055;stroke-linecap:round;stroke-linejoin:miter;stroke-miterlimit:4;stroke-dasharray:none;stroke-opacity:1" id="path2849" d="m 173.62603,173.62603 c 35.30284,35.30281 35.30284,35.30281 35.30284,35.30281"/><path style="display:inline;fill:none;stroke:#fff;stroke-width:15.875;stroke-linecap:butt;stroke-linejoin:miter;stroke-miterlimit:4;stroke-dasharray:none;stroke-opacity:1" id="path2851" d="m 156.4156,156.4156 c 47.00215,47.00212 47.00215,47.00212 47.00215,47.00212"/></g><path id="path1546" style="color:#000;font-style:normal;font-variant:normal;font-weight:400;font-stretch:normal;font-size:medium;line-height:normal;font-family:sans-serif;font-variant-ligatures:normal;font-variant-position:normal;font-variant-caps:normal;font-variant-numeric:normal;font-variant-alternates:normal;font-variant-east-asian:normal;font-feature-settings:normal;font-variation-settings:normal;text-indent:0;text-align:start;text-decoration:none;text-decoration-line:none;text-decoration-style:solid;text-decoration-color:#000;letter-spacing:normal;word-spacing:normal;text-transform:none;writing-mode:lr-tb;direction:ltr;text-orientation:mixed;dominant-baseline:auto;baseline-shift:baseline;text-anchor:start;white-space:normal;shape-padding:0;shape-margin:0;inline-size:0;clip-rule:nonzero;display:inline;overflow:visible;visibility:visible;opacity:1;isolation:auto;mix-blend-mode:normal;color-interpolation:sRGB;color-interpolation-filters:linearRGB;solid-color:#000;solid-opacity:1;vector-effect:none;fill:#fff;fill-opacity:1;fill-rule:nonzero;stroke:#3e3a49;stroke-width:5.29167;stroke-linecap:square;stroke-linejoin:miter;stroke-miterlimit:4;stroke-dasharray:none;stroke-dashoffset:0;stroke-opacity:1;paint-order:stroke fill markers;color-rendering:auto;image-rendering:auto;shape-rendering:auto;text-rendering:auto;enable-background:accumulate;stop-color:#000;stop-opacity:1" d="m 113.4616,52.607944 c -33.496092,-1e-5 -60.853646,27.35757 -60.853657,60.853656 0,33.49608 27.357565,60.85571 60.853657,60.85571 13.89997,0 26.74012,-4.71478 37.00962,-12.62093 l 9.6635,9.66349 a 11.45275,11.45275 0 0 0 3.35225,8.32456 l 35.30275,35.30275 a 11.45275,11.45275 0 0 0 16.19746,0 11.45275,11.45275 0 0 0 0,-16.19746 l -35.30275,-35.30275 a 11.45275,11.45275 0 0 0 -8.21087,-3.35329 11.45275,11.45275 0 0 0 -0.11421,0.002 l -9.66401,-9.66404 c 7.90543,-10.26978 12.61991,-23.10999 12.61991,-37.00963 0,-33.496086 -27.35757,-60.853656 -60.85365,-60.853656 z m 0,19.03708 c 23.20772,0 41.81657,18.60883 41.81657,41.816576 0,23.20773 -18.60885,41.81811 -41.81657,41.81811 -23.207733,1e-5 -41.816577,-18.61038 -41.816577,-41.81811 0,-23.207746 18.608847,-41.816586 41.816577,-41.816576 z"/></g></svg>